# xmcd
#
# Track frame offsets:
#	150
#	13054
#	32906
#	45528
#	58107
#	71886
#	83736
#	95108
#	107792
#	128064
#
# Disc length: 1978 seconds
#
# Revision: 0
# Processed by: cddbd v1.5.2PL0 Copyright (c) Steve Scherf et al.
# Submitted via: EZCDAudioConverter 6.0.4.1
#
DISCID=8a07b80a
DTITLE=Dale Anderson - True Stories (from my Fictitious Life)
DYEAR=2014
DGENRE=Blues
TTITLE0=Twenty Dollar Bill
TTITLE1=There Goes the 400
TTITLE2=Lookin' for Woody Guthrie
TTITLE3=Old Porch Swing
TTITLE4=The Hit (1938)
TTITLE5=Yes I Do
TTITLE6=Me and You, You and Me
TTITLE7=Watch the Sun Come Up
TTITLE8=I'm Gonna Go
TTITLE9=Dreams
EXTD=
EXTT0=
EXTT1=
EXTT2=
EXTT3=
EXTT4=
EXTT5=
EXTT6=
EXTT7=
EXTT8=
EXTT9=
PLAYORDER=
